<mxfile host="65bd71144e">
    <diagram id="q2VzQbZZF6bp65tAXvV5" name="Page-1">
        <mxGraphModel dx="576" dy="480" grid="1" gridSize="10" guides="1" tooltips="1" connect="1" arrows="1" fold="1" page="1" pageScale="1" pageWidth="850" pageHeight="1100" math="0" shadow="0">
            <root>
                <mxCell id="0"/>
                <mxCell id="1" parent="0"/>
                <mxCell id="2" value="&lt;h4&gt;&lt;font face=&quot;Courier New&quot;&gt;Start&lt;/font&gt;&lt;/h4&gt;" style="ellipse;whiteSpace=wrap;html=1;" vertex="1" parent="1">
                    <mxGeometry x="230" width="120" height="80" as="geometry"/>
                </mxCell>
                <mxCell id="3" value="" style="endArrow=classic;html=1;exitX=0.5;exitY=1;exitDx=0;exitDy=0;" edge="1" parent="1" source="2">
                    <mxGeometry width="50" height="50" relative="1" as="geometry">
                        <mxPoint x="265" y="130" as="sourcePoint"/>
                        <mxPoint x="290" y="120" as="targetPoint"/>
                    </mxGeometry>
                </mxCell>
                <mxCell id="4" value="&lt;h4&gt;&lt;font face=&quot;Courier New&quot;&gt;Ask the user to input three integer values.&lt;/font&gt;&lt;/h4&gt;&lt;div&gt;&lt;font face=&quot;Courier New&quot;&gt;&lt;b&gt;Variables: num1, num2, num3&lt;/b&gt;&lt;/font&gt;&lt;/div&gt;" style="rounded=1;whiteSpace=wrap;html=1;" vertex="1" parent="1">
                    <mxGeometry x="150" y="120" width="280" height="80" as="geometry"/>
                </mxCell>
                <mxCell id="8" value="" style="endArrow=classic;html=1;exitX=0.5;exitY=1;exitDx=0;exitDy=0;" edge="1" parent="1">
                    <mxGeometry width="50" height="50" relative="1" as="geometry">
                        <mxPoint x="289.5" y="200" as="sourcePoint"/>
                        <mxPoint x="289.5" y="240" as="targetPoint"/>
                    </mxGeometry>
                </mxCell>
                <mxCell id="10" value="&lt;h4&gt;&lt;font face=&quot;Courier New&quot;&gt;Use if, elif, and else statements to determine the possible ways in which one of the three integers is the highest in value.&amp;nbsp;&lt;/font&gt;&lt;/h4&gt;" style="rounded=1;whiteSpace=wrap;html=1;" vertex="1" parent="1">
                    <mxGeometry x="150" y="240" width="280" height="80" as="geometry"/>
                </mxCell>
                <mxCell id="12" value="" style="endArrow=classic;html=1;exitX=0.5;exitY=1;exitDx=0;exitDy=0;" edge="1" parent="1">
                    <mxGeometry width="50" height="50" relative="1" as="geometry">
                        <mxPoint x="289.5" y="320" as="sourcePoint"/>
                        <mxPoint x="289.5" y="360" as="targetPoint"/>
                    </mxGeometry>
                </mxCell>
                <mxCell id="13" value="&lt;h4&gt;&lt;font face=&quot;Courier New&quot;&gt;After each staement, use the variable: maxnum, to have the max number assigned to one of the three integers.&lt;/font&gt;&lt;/h4&gt;" style="rounded=1;whiteSpace=wrap;html=1;" vertex="1" parent="1">
                    <mxGeometry x="150" y="360" width="280" height="80" as="geometry"/>
                </mxCell>
                <mxCell id="14" value="" style="endArrow=classic;html=1;exitX=0.5;exitY=1;exitDx=0;exitDy=0;" edge="1" parent="1">
                    <mxGeometry width="50" height="50" relative="1" as="geometry">
                        <mxPoint x="289.5" y="440" as="sourcePoint"/>
                        <mxPoint x="289.5" y="480" as="targetPoint"/>
                    </mxGeometry>
                </mxCell>
                <mxCell id="15" value="&lt;h4&gt;&lt;font face=&quot;Courier New&quot;&gt;Print the max number.&amp;nbsp;&lt;/font&gt;&lt;/h4&gt;&lt;div&gt;&lt;font face=&quot;Courier New&quot;&gt;&lt;b&gt;Variable: maxnum&lt;/b&gt;&lt;/font&gt;&lt;/div&gt;" style="rounded=1;whiteSpace=wrap;html=1;" vertex="1" parent="1">
                    <mxGeometry x="150" y="480" width="280" height="80" as="geometry"/>
                </mxCell>
                <mxCell id="16" value="" style="endArrow=classic;html=1;exitX=0.5;exitY=1;exitDx=0;exitDy=0;" edge="1" parent="1">
                    <mxGeometry width="50" height="50" relative="1" as="geometry">
                        <mxPoint x="289.5" y="560" as="sourcePoint"/>
                        <mxPoint x="289.5" y="600" as="targetPoint"/>
                    </mxGeometry>
                </mxCell>
                <mxCell id="17" value="&lt;h4&gt;&lt;font face=&quot;Courier New&quot;&gt;End&lt;/font&gt;&lt;/h4&gt;" style="ellipse;whiteSpace=wrap;html=1;" vertex="1" parent="1">
                    <mxGeometry x="230" y="600" width="120" height="80" as="geometry"/>
                </mxCell>
            </root>
        </mxGraphModel>
    </diagram>
</mxfile>